HIERARCHY
ROOT Hips
{
	OFFSET 0.000000 100.481300 0.000000
	CHANNELS 6 Xposition Yposition Zposition Xrotation Yrotation Zrotation
	JOINT Spine
	{
		OFFSET -0.279200 12.230698 -2.892100
		CHANNELS 3 Xrotation Yrotation Zrotation
		JOINT Spine1
		{
			OFFSET -0.325700 14.269203 -3.374200
			CHANNELS 3 Xrotation Yrotation Zrotation
			JOINT Spine2
			{
				OFFSET -0.372300 16.307602 -0.352600
				CHANNELS 3 Xrotation Yrotation Zrotation
				JOINT Neck
				{
					OFFSET -0.418800 17.814194 8.416900
					CHANNELS 3 Xrotation Yrotation Zrotation
					JOINT Head
					{
						OFFSET 0.000000 7.031097 3.806800
						CHANNELS 3 Xrotation Yrotation Zrotation
						JOINT HeadTop_End
						{
							OFFSET 0.000000 24.646606 12.978600
							CHANNELS 3 Xrotation Yrotation Zrotation
							End Site
							{
								OFFSET 0.000000 27.854965 0.000000
							}
						}
					}
				}
				JOINT LeftShoulder
				{
					OFFSET 16.952999 14.495407 -7.737500
					CHANNELS 3 Xrotation Yrotation Zrotation
					JOINT LeftArm
					{
						OFFSET 9.308998 -2.777710 0.208600
						CHANNELS 3 Xrotation Yrotation Zrotation
						JOINT LeftForeArm
						{
							OFFSET 29.972298 0.000000 0.000000
							CHANNELS 3 Xrotation Yrotation Zrotation
							JOINT LeftHand
							{
								OFFSET 26.026505 0.000000 0.000000
								CHANNELS 3 Xrotation Yrotation Zrotation
								JOINT LeftHandThumb1
								{
									OFFSET 12.240501 -7.147949 9.207150
									CHANNELS 3 Xrotation Yrotation Zrotation
									JOINT LeftHandThumb2
									{
										OFFSET 4.138618 -2.389435 2.389433
										CHANNELS 3 Xrotation Yrotation Zrotation
										JOINT LeftHandThumb3
										{
											OFFSET 2.726913 -1.574387 1.574386
											CHANNELS 3 Xrotation Yrotation Zrotation
											JOINT LeftHandThumb4
											{
												OFFSET 3.941010 -2.275345 2.275342
												CHANNELS 3 Xrotation Yrotation Zrotation
												End Site
												{
													OFFSET -0.005798 5.087799 0.009903
												}
											}
										}
									}
								}
								JOINT LeftHandIndex1
								{
									OFFSET 24.424698 -1.985611 5.953459
									CHANNELS 3 Xrotation Yrotation Zrotation
									JOINT LeftHandIndex2
									{
										OFFSET 6.426697 0.000000 0.000000
										CHANNELS 3 Xrotation Yrotation Zrotation
										JOINT LeftHandIndex3
										{
											OFFSET 5.337898 0.000000 0.000000
											CHANNELS 3 Xrotation Yrotation Zrotation
											JOINT LeftHandIndex4
											{
												OFFSET 4.409401 0.000000 0.000000
												CHANNELS 3 Xrotation Yrotation Zrotation
												End Site
												{
													OFFSET 0.000000 4.409363 0.014373
												}
											}
										}
									}
								}
								JOINT LeftHandMiddle1
								{
									OFFSET 23.810104 0.000000 0.000000
									CHANNELS 3 Xrotation Yrotation Zrotation
									JOINT LeftHandMiddle2
									{
										OFFSET 7.176498 0.000000 0.000000
										CHANNELS 3 Xrotation Yrotation Zrotation
										JOINT LeftHandMiddle3
										{
											OFFSET 6.774902 0.000000 0.000000
											CHANNELS 3 Xrotation Yrotation Zrotation
											JOINT LeftHandMiddle4
											{
												OFFSET 5.403328 0.000000 0.000000
												CHANNELS 3 Xrotation Yrotation Zrotation
												End Site
												{
													OFFSET -0.027702 5.403244 0.017414
												}
											}
										}
									}
								}
								JOINT LeftHandRing1
								{
									OFFSET 22.908401 -0.839279 -6.020567
									CHANNELS 3 Xrotation Yrotation Zrotation
									JOINT LeftHandRing2
									{
										OFFSET 6.337502 0.000000 0.000000
										CHANNELS 3 Xrotation Yrotation Zrotation
										JOINT LeftHandRing3
										{
											OFFSET 5.779297 0.000000 0.000000
											CHANNELS 3 Xrotation Yrotation Zrotation
											JOINT LeftHandRing4
											{
												OFFSET 4.965698 0.000000 0.000000
												CHANNELS 3 Xrotation Yrotation Zrotation
												End Site
												{
													OFFSET 0.000000 4.965668 0.016186
												}
											}
										}
									}
								}
								JOINT LeftHandPinky1
								{
									OFFSET 20.037003 -1.530319 -10.950146
									CHANNELS 3 Xrotation Yrotation Zrotation
									JOINT LeftHandPinky2
									{
										OFFSET 5.254700 0.000000 0.000000
										CHANNELS 3 Xrotation Yrotation Zrotation
										JOINT LeftHandPinky3
										{
											OFFSET 4.810204 0.000000 0.000000
											CHANNELS 3 Xrotation Yrotation Zrotation
											JOINT LeftHandPinky4
											{
												OFFSET 3.647202 0.000000 0.000000
												CHANNELS 3 Xrotation Yrotation Zrotation
												End Site
												{
													OFFSET 0.000000 3.647186 0.011889
												}
											}
										}
									}
								}
							}
						}
					}
				}
				JOINT RightShoulder
				{
					OFFSET -15.141001 14.495407 -7.737500
					CHANNELS 3 Xrotation Yrotation Zrotation
					JOINT RightArm
					{
						OFFSET -9.308998 -2.777710 0.208500
						CHANNELS 3 Xrotation Yrotation Zrotation
						JOINT RightForeArm
						{
							OFFSET -29.972300 0.000000 0.000000
							CHANNELS 3 Xrotation Yrotation Zrotation
							JOINT RightHand
							{
								OFFSET -26.026505 0.000000 0.000000
								CHANNELS 3 Xrotation Yrotation Zrotation
								JOINT RightHandThumb1
								{
									OFFSET -12.240601 -7.148026 9.207092
									CHANNELS 3 Xrotation Yrotation Zrotation
									JOINT RightHandThumb2
									{
										OFFSET -4.138618 -2.389435 2.389433
										CHANNELS 3 Xrotation Yrotation Zrotation
										JOINT RightHandThumb3
										{
											OFFSET -2.726974 -1.574417 1.574421
											CHANNELS 3 Xrotation Yrotation Zrotation
											JOINT RightHandThumb4
											{
												OFFSET -3.941010 -2.275345 2.275343
												CHANNELS 3 Xrotation Yrotation Zrotation
												End Site
												{
													OFFSET 0.005814 5.087799 0.009927
												}
											}
										}
									}
								}
								JOINT RightHandIndex1
								{
									OFFSET -24.424698 -1.985657 5.953444
									CHANNELS 3 Xrotation Yrotation Zrotation
									JOINT RightHandIndex2
									{
										OFFSET -6.426697 0.000000 0.000000
										CHANNELS 3 Xrotation Yrotation Zrotation
										JOINT RightHandIndex3
										{
											OFFSET -5.337898 0.000000 0.000000
											CHANNELS 3 Xrotation Yrotation Zrotation
											JOINT RightHandIndex4
											{
												OFFSET -4.409401 0.000000 0.000000
												CHANNELS 3 Xrotation Yrotation Zrotation
												End Site
												{
													OFFSET 0.000000 4.409363 0.014408
												}
											}
										}
									}
								}
								JOINT RightHandMiddle1
								{
									OFFSET -23.810097 0.000000 0.000000
									CHANNELS 3 Xrotation Yrotation Zrotation
									JOINT RightHandMiddle2
									{
										OFFSET -7.176498 0.000000 0.000000
										CHANNELS 3 Xrotation Yrotation Zrotation
										JOINT RightHandMiddle3
										{
											OFFSET -6.774902 0.000000 0.000000
											CHANNELS 3 Xrotation Yrotation Zrotation
											JOINT RightHandMiddle4
											{
												OFFSET -5.403328 0.000000 0.000000
												CHANNELS 3 Xrotation Yrotation Zrotation
												End Site
												{
													OFFSET 0.027702 5.403244 0.017457
												}
											}
										}
									}
								}
								JOINT RightHandRing1
								{
									OFFSET -22.908302 -0.839325 -6.020576
									CHANNELS 3 Xrotation Yrotation Zrotation
									JOINT RightHandRing2
									{
										OFFSET -6.337502 0.000000 0.000000
										CHANNELS 3 Xrotation Yrotation Zrotation
										JOINT RightHandRing3
										{
											OFFSET -5.779297 0.000000 0.000000
											CHANNELS 3 Xrotation Yrotation Zrotation
											JOINT RightHandRing4
											{
												OFFSET -4.965698 0.000000 0.000000
												CHANNELS 3 Xrotation Yrotation Zrotation
												End Site
												{
													OFFSET 0.000000 4.965668 0.016226
												}
											}
										}
									}
								}
								JOINT RightHandPinky1
								{
									OFFSET -20.037003 -1.530334 -10.950259
									CHANNELS 3 Xrotation Yrotation Zrotation
									JOINT RightHandPinky2
									{
										OFFSET -5.254700 0.000000 0.000000
										CHANNELS 3 Xrotation Yrotation Zrotation
										JOINT RightHandPinky3
										{
											OFFSET -4.810204 0.000000 0.000000
											CHANNELS 3 Xrotation Yrotation Zrotation
											JOINT RightHandPinky4
											{
												OFFSET -3.647202 0.000000 0.000000
												CHANNELS 3 Xrotation Yrotation Zrotation
												End Site
												{
													OFFSET 0.000000 3.647186 0.011917
												}
											}
										}
									}
								}
							}
						}
					}
				}
			}
		}
	}
	JOINT LeftUpLeg
	{
		OFFSET 15.427100 -6.655098 0.678600
		CHANNELS 3 Xrotation Yrotation Zrotation
		JOINT LeftLeg
		{
			OFFSET 4.081073 -39.591068 13.024000
			CHANNELS 3 Xrotation Yrotation Zrotation
			JOINT LeftFoot
			{
				OFFSET -4.081074 -37.707932 -15.979700
				CHANNELS 3 Xrotation Yrotation Zrotation
				JOINT LeftToeBase
				{
					OFFSET 5.346399 -15.068900 20.645000
					CHANNELS 3 Xrotation Yrotation Zrotation
					JOINT LeftToe_End
					{
						OFFSET 2.754700 0.931300 11.300900
						CHANNELS 3 Xrotation Yrotation Zrotation
						End Site
						{
							OFFSET 0.000000 11.669021 0.000000
						}
					}
				}
			}
		}
	}
	JOINT RightUpLeg
	{
		OFFSET -15.569500 -6.655098 0.678600
		CHANNELS 3 Xrotation Yrotation Zrotation
		JOINT RightLeg
		{
			OFFSET -4.081825 -39.591045 13.023800
			CHANNELS 3 Xrotation Yrotation Zrotation
			JOINT RightFoot
			{
				OFFSET 4.081824 -37.707954 -15.979600
				CHANNELS 3 Xrotation Yrotation Zrotation
				JOINT RightToeBase
				{
					OFFSET -5.346400 -15.068900 20.645000
					CHANNELS 3 Xrotation Yrotation Zrotation
					JOINT RightToe_End
					{
						OFFSET -2.754700 0.931300 11.300900
						CHANNELS 3 Xrotation Yrotation Zrotation
						End Site
						{
							OFFSET 0.000000 11.669021 0.000000
						}
					}
				}
			}
		}
	}
}
MOTION
Frames: 5
Frame Time: 0.033333
-15.394077 64.881020 16.598915 0.641923 -44.588861 -4.984362 61.066181 8.267785 -3.727179 2.006671 1.546506 -1.270963 2.019094 1.437465 -1.382017 -10.478629 1.824078 -0.894652 -20.244349 1.746605 5.782194 0.000001 0.000002 -0.000000 -9.206573 -17.969999 6.275592 -94.391725 -29.377501 -54.680237 -0.000041 -55.744749 -0.000038 -126.026935 -10.270289 14.766092 4.709225 9.560383 3.111990 19.473187 -1.474923 7.636918 -4.536195 -9.613099 1.492976 -0.000001 0.000002 -0.000002 -0.212819 3.933719 -36.747125 2.942152 5.078905 -60.144597 0.513672 2.400826 -24.150495 -0.000003 -0.000001 -0.000002 0.405922 5.507060 -52.453162 3.387133 5.308620 -65.057456 0.282013 1.797456 -17.832376 -0.000000 0.000001 0.000003 -0.074372 5.736789 -61.061406 4.055033 5.569510 -72.094914 0.582666 2.548980 -25.747995 0.000001 0.000002 -0.000000 -6.565574 4.545137 -72.425229 3.299627 5.267214 -64.107821 0.175347 1.424014 -14.038888 -0.000001 -0.000002 -0.000002 -9.850849 14.633248 1.555311 -53.720278 28.923891 41.834550 0.000087 113.820315 -0.000095 -40.261165 -18.840156 -17.916097 8.377134 -4.904143 11.021989 21.620214 -18.183891 -18.379218 -0.702914 -49.821203 -32.535152 0.000001 -0.000000 -0.000001 -0.920037 1.683586 12.434983 0.748122 -2.533468 32.898282 0.615630 -2.316068 29.767832 -0.000001 0.000000 0.000001 3.413058 -7.186261 51.650242 6.296815 -4.359598 110.634653 0.248721 -1.503075 18.790286 0.000001 0.000000 0.000000 -3.349046 -2.600421 57.010571 5.440855 -4.590909 99.698161 1.689413 -3.590691 50.382224 -0.000001 -0.000001 0.000002 -3.996444 -3.303933 64.593857 4.058843 -4.618673 82.610530 2.315562 -4.026794 59.787214 -0.000000 -0.000000 -0.000002 -44.942983 -0.678081 24.456614 77.767482 -9.526743 4.307635 -32.345703 9.607108 -13.212281 1.486405 -0.008213 0.580755 -0.000000 0.000001 -0.000000 -60.165142 3.295685 -27.450424 28.967426 -0.050451 -8.329980 13.428419 -7.642868 18.776318 -14.284659 0.000004 -0.000006 -0.000001 0.000002 -0.000000 
-19.137306 62.975105 16.612391 0.144482 -43.642470 -3.536322 59.974723 7.104236 -3.318712 1.737296 1.133208 -1.535811 1.762731 0.965766 -1.641472 -8.832295 1.936528 -0.512200 -21.026058 1.556273 5.501026 -0.000001 -0.000003 -0.000000 -10.937803 -18.536474 6.124620 -91.117005 -29.958535 -54.523505 -0.000017 -55.385102 -0.000012 -126.500718 -11.180280 14.544408 4.709226 9.560382 3.111990 19.473190 -1.474923 7.636919 -4.536193 -9.613099 1.492977 -0.000001 0.000001 -0.000001 -0.212819 3.933719 -36.747125 2.942151 5.078906 -60.144597 0.513679 2.400826 -24.150497 -0.000001 0.000001 0.000004 0.405921 5.507057 -52.453162 3.387136 5.308621 -65.057463 0.282015 1.797458 -17.832381 0.000003 -0.000002 0.000001 -0.074372 5.736787 -61.061406 4.055035 5.569510 -72.094921 0.582668 2.548980 -25.747993 -0.000001 -0.000002 -0.000001 -6.565574 4.545141 -72.425229 3.299627 5.267214 -64.107821 0.175343 1.424013 -14.038884 -0.000001 0.000001 0.000002 -11.568840 13.282916 0.800746 -51.484699 26.731004 44.646956 0.000065 113.904135 -0.000056 -39.562276 -18.574754 -16.217109 8.377134 -4.904142 11.021989 21.620221 -18.183893 -18.379219 -0.702911 -49.821203 -32.535145 -0.000000 -0.000001 0.000002 -0.920038 1.683586 12.434984 0.748122 -2.533467 32.898282 0.615630 -2.316068 29.767829 -0.000000 0.000000 0.000002 3.413058 -7.186261 51.650246 6.296815 -4.359598 110.634646 0.248720 -1.503075 18.790288 0.000000 -0.000000 -0.000000 -3.349045 -2.600420 57.010568 5.440855 -4.590910 99.698168 1.689412 -3.590691 50.382218 0.000001 0.000000 -0.000001 -3.996444 -3.303932 64.593857 4.058843 -4.618673 82.610530 2.315561 -4.026793 59.787214 -0.000000 -0.000000 0.000001 -42.468576 -0.687377 26.704057 78.338452 -11.232740 4.032168 -34.666215 8.899127 -15.532578 1.445852 -0.005787 0.487694 -0.000000 -0.000001 -0.000000 -62.457374 5.654490 -29.435571 34.987326 2.425544 -7.293831 17.850549 -9.165754 20.821364 -16.058470 0.000012 0.000002 -0.000001 -0.000001 -0.000001 
-22.988270 61.501259 16.443922 -0.616730 -42.661293 -2.255004 59.332200 4.892381 -2.878338 1.561138 1.143874 -1.700922 1.576997 0.976876 -1.798101 -8.382990 1.795897 0.827987 -20.901996 2.516402 3.913030 -0.000003 -0.000001 -0.000001 -12.768216 -19.163819 5.924686 -89.108799 -28.748519 -55.500157 0.000026 -55.747239 0.000016 -124.960333 -11.502234 15.358804 4.709227 9.560385 3.111989 19.473185 -1.474927 7.636920 -4.536195 -9.613099 1.492976 0.000001 0.000003 -0.000001 -0.212819 3.933721 -36.747125 2.942152 5.078906 -60.144597 0.513677 2.400825 -24.150497 0.000002 -0.000001 0.000001 0.405922 5.507062 -52.453165 3.387131 5.308622 -65.057456 0.282014 1.797458 -17.832379 0.000001 -0.000003 0.000001 -0.074372 5.736796 -61.061413 4.055031 5.569512 -72.094921 0.582669 2.548981 -25.747993 -0.000001 0.000001 0.000000 -6.565574 4.545141 -72.425236 3.299628 5.267215 -64.107814 0.175348 1.424012 -14.038885 0.000001 0.000003 -0.000001 -13.392218 12.014835 -0.029927 -48.963611 25.580763 45.706455 0.000034 113.982955 -0.000015 -40.286419 -17.675742 -15.681090 8.377134 -4.904143 11.021987 21.620219 -18.183891 -18.379219 -0.702911 -49.821203 -32.535155 0.000001 0.000001 0.000001 -0.920037 1.683586 12.434984 0.748122 -2.533469 32.898286 0.615630 -2.316067 29.767832 -0.000000 -0.000000 -0.000001 3.413058 -7.186261 51.650242 6.296815 -4.359598 110.634646 0.248721 -1.503076 18.790286 0.000000 0.000000 -0.000000 -3.349045 -2.600420 57.010568 5.440855 -4.590909 99.698168 1.689412 -3.590690 50.382221 0.000000 0.000000 0.000000 -3.996444 -3.303933 64.593857 4.058843 -4.618671 82.610523 2.315562 -4.026793 59.787207 0.000000 -0.000000 -0.000000 -39.412855 -0.520967 28.511259 77.774394 -13.260108 4.195249 -36.310624 9.037991 -17.866692 1.443829 -0.005359 0.469363 0.000000 0.000001 -0.000000 -63.512406 7.796292 -30.756752 40.415797 3.758402 -7.141143 21.378856 -12.275186 24.058498 -15.468850 0.000013 0.000010 -0.000000 0.000001 0.000001 
-27.340338 60.381966 16.239466 -1.314138 -41.581184 -1.617851 58.666469 3.307525 -1.657152 1.467965 1.101450 -1.903549 1.479475 0.923475 -1.990749 -8.017240 1.971519 0.815258 -20.994808 2.777276 3.431283 -0.000003 0.000001 -0.000000 -14.666631 -19.822312 5.728016 -86.653401 -27.016303 -55.849531 0.000014 -56.426747 0.000004 -123.710886 -11.512874 16.140138 4.709225 9.560385 3.111989 19.473185 -1.474927 7.636921 -4.536193 -9.613098 1.492976 -0.000002 0.000003 -0.000001 -0.212819 3.933723 -36.747125 2.942153 5.078902 -60.144597 0.513672 2.400826 -24.150499 0.000004 -0.000000 0.000002 0.405922 5.507064 -52.453162 3.387132 5.308622 -65.057456 0.282013 1.797456 -17.832386 -0.000001 -0.000000 0.000001 -0.074372 5.736795 -61.061413 4.055034 5.569510 -72.094921 0.582670 2.548979 -25.747995 -0.000001 -0.000000 0.000001 -6.565575 4.545142 -72.425236 3.299626 5.267212 -64.107814 0.175347 1.424015 -14.038893 -0.000001 0.000001 0.000001 -15.285294 10.872112 -0.922883 -46.828064 25.083721 47.710835 -0.000014 113.709310 0.000018 -40.192846 -17.265458 -15.098840 8.377134 -4.904143 11.021991 21.620221 -18.183893 -18.379219 -0.702914 -49.821200 -32.535148 -0.000000 -0.000000 -0.000000 -0.920037 1.683587 12.434984 0.748122 -2.533470 32.898282 0.615630 -2.316067 29.767832 -0.000000 0.000000 -0.000000 3.413058 -7.186262 51.650246 6.296815 -4.359598 110.634646 0.248721 -1.503075 18.790286 -0.000001 -0.000000 -0.000000 -3.349046 -2.600420 57.010564 5.440856 -4.590910 99.698161 1.689412 -3.590690 50.382228 0.000000 -0.000001 -0.000001 -3.996444 -3.303932 64.593857 4.058843 -4.618674 82.610523 2.315562 -4.026794 59.787214 0.000000 -0.000000 0.000001 -36.277047 -0.856643 31.020230 76.657856 -14.065638 4.469549 -36.205873 9.983634 -20.850401 0.924975 -0.022122 0.953147 0.000000 0.000001 -0.000000 -65.239201 8.579446 -31.005394 46.111147 5.259378 -6.908039 22.660623 -11.405794 23.904726 -14.243249 -0.000014 -0.000010 -0.000002 -0.000001 -0.000000 
-32.107006 59.863258 15.809525 -2.036715 -40.163087 -1.640980 58.396458 2.109577 0.207296 1.404264 1.054563 -2.064981 1.408560 0.869447 -2.140218 -8.506950 2.210435 0.329500 -20.351771 2.694606 3.530438 -0.000003 0.000000 0.000000 -16.603411 -20.495443 5.597900 -85.006356 -24.824456 -56.058149 0.000028 -56.070741 0.000032 -122.583495 -10.521833 16.618475 4.709226 9.560381 3.111990 19.473185 -1.474926 7.636921 -4.536194 -9.613100 1.492975 0.000000 0.000002 -0.000002 -0.212819 3.933723 -36.747128 2.942153 5.078903 -60.144597 0.513678 2.400826 -24.150500 0.000003 -0.000000 0.000001 0.405922 5.507058 -52.453162 3.387135 5.308622 -65.057463 0.282019 1.797458 -17.832381 0.000002 -0.000002 -0.000002 -0.074372 5.736790 -61.061413 4.055030 5.569512 -72.094914 0.582666 2.548980 -25.747995 -0.000002 -0.000001 0.000002 -6.565574 4.545139 -72.425229 3.299628 5.267213 -64.107814 0.175347 1.424016 -14.038884 -0.000001 -0.000001 0.000002 -17.218804 9.863135 -1.875072 -46.078806 25.479160 50.786698 -0.000015 112.495674 0.000025 -39.491163 -17.525564 -14.507889 8.377133 -4.904143 11.021988 21.620219 -18.183893 -18.379218 -0.702909 -49.821196 -32.535148 0.000000 0.000001 -0.000001 -0.920037 1.683585 12.434983 0.748122 -2.533468 32.898282 0.615629 -2.316067 29.767832 -0.000000 -0.000000 0.000002 3.413059 -7.186262 51.650242 6.296816 -4.359598 110.634646 0.248721 -1.503076 18.790288 0.000001 -0.000000 -0.000000 -3.349046 -2.600420 57.010564 5.440854 -4.590909 99.698168 1.689412 -3.590690 50.382224 -0.000000 -0.000001 -0.000000 -3.996445 -3.303932 64.593857 4.058842 -4.618673 82.610523 2.315561 -4.026793 59.787214 -0.000000 -0.000000 0.000000 -33.818100 -2.991726 33.790838 76.523588 -7.980644 4.869837 -31.791713 10.365722 -25.261026 1.017871 0.048746 -2.512228 -0.000000 0.000000 0.000000 -66.263531 8.288931 -30.439257 52.527672 6.313318 -6.915780 20.984682 -12.790777 22.807265 -12.226443 -0.000009 -0.000003 -0.000001 -0.000001 -0.000001 
